<mxfile host="app.diagrams.net" agent="Mozilla/5.0 (Windows NT 10.0; Win64; x64; rv:135.0) Gecko/20100101 Firefox/135.0" version="26.0.14">
  <diagram name="Page-1" id="4A-aKbC3pvbTq7zJnwlg">
    <mxGraphModel dx="1050" dy="566" grid="1" gridSize="10" guides="1" tooltips="1" connect="1" arrows="1" fold="1" page="1" pageScale="1" pageWidth="850" pageHeight="1100" math="0" shadow="0">
      <root>
        <mxCell id="0" />
        <mxCell id="1" parent="0" />
        <mxCell id="Nl1UM2knPIPXNWMVBXlW-20" style="rounded=0;orthogonalLoop=1;jettySize=auto;html=1;dashed=1;dashPattern=1 4;endArrow=none;startFill=0;fillColor=#d5e8d4;strokeColor=#82b366;" edge="1" parent="1" source="Nl1UM2knPIPXNWMVBXlW-1" target="Nl1UM2knPIPXNWMVBXlW-2">
          <mxGeometry relative="1" as="geometry" />
        </mxCell>
        <mxCell id="Nl1UM2knPIPXNWMVBXlW-1" value="&lt;div&gt;Active Directory&lt;/div&gt;&lt;div&gt;IP: 192.168.10.7&lt;/div&gt;&lt;div&gt;Splunk Universal Forwarder&lt;/div&gt;&lt;div&gt;Sysmon&lt;/div&gt;" style="sketch=0;outlineConnect=0;fontColor=#232F3E;gradientColor=none;fillColor=#232F3D;strokeColor=none;dashed=0;verticalLabelPosition=bottom;verticalAlign=top;align=center;html=1;fontSize=12;fontStyle=0;aspect=fixed;pointerEvents=1;shape=mxgraph.aws4.traditional_server;" vertex="1" parent="1">
          <mxGeometry x="120" y="350" width="45" height="78" as="geometry" />
        </mxCell>
        <mxCell id="Nl1UM2knPIPXNWMVBXlW-11" style="edgeStyle=orthogonalEdgeStyle;rounded=0;orthogonalLoop=1;jettySize=auto;html=1;entryX=0;entryY=0.5;entryDx=0;entryDy=0;entryPerimeter=0;" edge="1" parent="1" source="Nl1UM2knPIPXNWMVBXlW-2" target="Nl1UM2knPIPXNWMVBXlW-5">
          <mxGeometry relative="1" as="geometry">
            <mxPoint x="260" y="300" as="targetPoint" />
          </mxGeometry>
        </mxCell>
        <mxCell id="Nl1UM2knPIPXNWMVBXlW-2" value="&lt;div&gt;Splunk Server&lt;/div&gt;&lt;div&gt;IP: 192.168.10.10&lt;/div&gt;" style="sketch=0;outlineConnect=0;fontColor=#232F3E;gradientColor=none;fillColor=#232F3D;strokeColor=none;dashed=0;verticalLabelPosition=bottom;verticalAlign=top;align=center;html=1;fontSize=12;fontStyle=0;aspect=fixed;pointerEvents=1;shape=mxgraph.aws4.traditional_server;" vertex="1" parent="1">
          <mxGeometry x="120" y="170" width="45" height="78" as="geometry" />
        </mxCell>
        <mxCell id="Nl1UM2knPIPXNWMVBXlW-19" style="rounded=0;orthogonalLoop=1;jettySize=auto;html=1;dashed=1;dashPattern=1 4;endArrow=none;startFill=0;fillColor=#d5e8d4;strokeColor=#82b366;" edge="1" parent="1" source="Nl1UM2knPIPXNWMVBXlW-3" target="Nl1UM2knPIPXNWMVBXlW-2">
          <mxGeometry relative="1" as="geometry" />
        </mxCell>
        <mxCell id="Nl1UM2knPIPXNWMVBXlW-3" value="&lt;div&gt;Windows 10&lt;/div&gt;&lt;div&gt;IP: DHCP&lt;/div&gt;&lt;div&gt;Splunk Universal Forwarder&lt;/div&gt;&lt;div&gt;Sysmon&lt;/div&gt;&lt;div&gt;Atomic Red Team&lt;/div&gt;" style="verticalLabelPosition=bottom;html=1;verticalAlign=top;align=center;strokeColor=none;fillColor=#00BEF2;shape=mxgraph.azure.computer;pointerEvents=1;" vertex="1" parent="1">
          <mxGeometry x="400" y="450" width="50" height="45" as="geometry" />
        </mxCell>
        <mxCell id="Nl1UM2knPIPXNWMVBXlW-4" value="&lt;div&gt;Kali Linux&lt;/div&gt;&lt;div&gt;IP: 192.168.10.250&lt;/div&gt;" style="verticalLabelPosition=bottom;html=1;verticalAlign=top;align=center;strokeColor=#b85450;fillColor=#f8cecc;shape=mxgraph.azure.computer;pointerEvents=1;" vertex="1" parent="1">
          <mxGeometry x="610" y="272.5" width="50" height="45" as="geometry" />
        </mxCell>
        <mxCell id="Nl1UM2knPIPXNWMVBXlW-5" value="" style="sketch=0;points=[[0.015,0.015,0],[0.985,0.015,0],[0.985,0.985,0],[0.015,0.985,0],[0.25,0,0],[0.5,0,0],[0.75,0,0],[1,0.25,0],[1,0.5,0],[1,0.75,0],[0.75,1,0],[0.5,1,0],[0.25,1,0],[0,0.75,0],[0,0.5,0],[0,0.25,0]];verticalLabelPosition=bottom;html=1;verticalAlign=top;aspect=fixed;align=center;pointerEvents=1;shape=mxgraph.cisco19.rect;prIcon=l2_switch;fillColor=#FAFAFA;strokeColor=#005073;" vertex="1" parent="1">
          <mxGeometry x="400" y="270" width="50" height="50" as="geometry" />
        </mxCell>
        <mxCell id="Nl1UM2knPIPXNWMVBXlW-16" style="edgeStyle=orthogonalEdgeStyle;rounded=0;orthogonalLoop=1;jettySize=auto;html=1;" edge="1" parent="1" source="Nl1UM2knPIPXNWMVBXlW-6" target="Nl1UM2knPIPXNWMVBXlW-7">
          <mxGeometry relative="1" as="geometry" />
        </mxCell>
        <mxCell id="Nl1UM2knPIPXNWMVBXlW-6" value="" style="sketch=0;points=[[0.5,0,0],[1,0.5,0],[0.5,1,0],[0,0.5,0],[0.145,0.145,0],[0.8555,0.145,0],[0.855,0.8555,0],[0.145,0.855,0]];verticalLabelPosition=bottom;html=1;verticalAlign=top;aspect=fixed;align=center;pointerEvents=1;shape=mxgraph.cisco19.rect;prIcon=router;fillColor=#FAFAFA;strokeColor=#005073;" vertex="1" parent="1">
          <mxGeometry x="400" y="154" width="50" height="50" as="geometry" />
        </mxCell>
        <mxCell id="Nl1UM2knPIPXNWMVBXlW-7" value="Internet" style="ellipse;shape=cloud;whiteSpace=wrap;html=1;" vertex="1" parent="1">
          <mxGeometry x="365" y="20" width="120" height="80" as="geometry" />
        </mxCell>
        <mxCell id="Nl1UM2knPIPXNWMVBXlW-10" style="edgeStyle=orthogonalEdgeStyle;rounded=0;orthogonalLoop=1;jettySize=auto;html=1;exitX=0;exitY=0.5;exitDx=0;exitDy=0;exitPerimeter=0;entryX=1;entryY=0.5;entryDx=0;entryDy=0;entryPerimeter=0;" edge="1" parent="1" source="Nl1UM2knPIPXNWMVBXlW-4" target="Nl1UM2knPIPXNWMVBXlW-5">
          <mxGeometry relative="1" as="geometry" />
        </mxCell>
        <mxCell id="Nl1UM2knPIPXNWMVBXlW-12" style="edgeStyle=orthogonalEdgeStyle;rounded=0;orthogonalLoop=1;jettySize=auto;html=1;entryX=0;entryY=0.5;entryDx=0;entryDy=0;entryPerimeter=0;" edge="1" parent="1" source="Nl1UM2knPIPXNWMVBXlW-1" target="Nl1UM2knPIPXNWMVBXlW-5">
          <mxGeometry relative="1" as="geometry" />
        </mxCell>
        <mxCell id="Nl1UM2knPIPXNWMVBXlW-13" style="edgeStyle=orthogonalEdgeStyle;rounded=0;orthogonalLoop=1;jettySize=auto;html=1;entryX=0.5;entryY=1;entryDx=0;entryDy=0;entryPerimeter=0;" edge="1" parent="1" source="Nl1UM2knPIPXNWMVBXlW-5" target="Nl1UM2knPIPXNWMVBXlW-6">
          <mxGeometry relative="1" as="geometry" />
        </mxCell>
        <mxCell id="Nl1UM2knPIPXNWMVBXlW-17" value="&lt;div&gt;Domain: MyDFIR&lt;/div&gt;&lt;div&gt;Network: 192.168.10.0/24&lt;/div&gt;&lt;div&gt;Splunk Server: 192.168.10.10&lt;/div&gt;&lt;div&gt;Active Directory: 192.168.10.7&lt;/div&gt;&lt;div&gt;Attacker: 192.168.10.250&lt;/div&gt;" style="text;html=1;align=center;verticalAlign=middle;resizable=0;points=[];autosize=1;strokeColor=none;fillColor=none;" vertex="1" parent="1">
          <mxGeometry x="40" y="28" width="180" height="90" as="geometry" />
        </mxCell>
        <mxCell id="Nl1UM2knPIPXNWMVBXlW-18" style="edgeStyle=orthogonalEdgeStyle;rounded=0;orthogonalLoop=1;jettySize=auto;html=1;entryX=0.5;entryY=1.2;entryDx=0;entryDy=0;entryPerimeter=0;" edge="1" parent="1">
          <mxGeometry relative="1" as="geometry">
            <mxPoint x="425" y="447.5" as="sourcePoint" />
            <mxPoint x="425" y="317.5" as="targetPoint" />
          </mxGeometry>
        </mxCell>
      </root>
    </mxGraphModel>
  </diagram>
</mxfile>
